<?xml version="1.0" standalone="no"?>
<!DOCTYPE svg PUBLIC "-//W3C//DTD SVG 20010904//EN"
 "http://www.w3.org/TR/2001/REC-SVG-20010904/DTD/svg10.dtd">
<svg version="1.0" xmlns="http://www.w3.org/2000/svg"
 width="225.000000pt" height="225.000000pt" viewBox="0 0 225.000000 225.000000"
 preserveAspectRatio="xMidYMid meet">
<metadata>
Created by potrace 1.15, written by Peter Selinger 2001-2017
</metadata>
<g transform="translate(0.000000,225.000000) scale(0.100000,-0.100000)"
fill="#000000" stroke="none">
<path d="M1010 2051 c-261 -38 -488 -189 -590 -391 l-30 -58 83 37 c189 88
417 158 632 195 121 21 380 46 474 46 l76 0 -25 20 c-47 38 -205 110 -283 130
-89 22 -256 33 -337 21z"/>
<path d="M1575 1789 c-299 -56 -654 -167 -920 -289 -103 -47 -289 -140 -299
-150 -5 -5 -6 -24 -2 -44 l7 -35 117 59 c388 194 784 290 1198 290 133 0 174
3 174 13 -1 15 -56 104 -92 146 -31 36 -39 37 -183 10z"/>
<path d="M1810 1559 c-25 -5 -92 -19 -150 -30 -375 -73 -789 -218 -1090 -382
-145 -78 -136 -70 -115 -104 l17 -29 162 80 c178 90 424 178 616 220 137 31
380 63 542 72 l118 6 -6 41 c-11 81 -26 137 -37 136 -7 -1 -32 -5 -57 -10z"/>
<path d="M1770 1295 c-274 -61 -537 -146 -779 -251 -159 -70 -353 -174 -348
-188 6 -21 193 -107 277 -128 108 -26 292 -29 395 -4 284 67 497 252 569 495
19 65 21 101 4 100 -7 0 -60 -11 -118 -24z"/>
<path d="M820 584 c0 -64 -1 -65 -22 -57 -13 4 -46 8 -75 8 -159 0 -213 -217
-75 -298 37 -22 117 -26 150 -8 14 7 23 8 27 1 3 -5 22 -10 41 -10 l34 0 0
215 0 215 -40 0 -40 0 0 -66z m-31 -140 c64 -54 27 -154 -56 -154 -86 1 -124
91 -64 151 37 37 79 38 120 3z"/>
<path d="M1310 584 c0 -64 -1 -66 -22 -59 -115 37 -217 -16 -234 -123 -21
-131 107 -221 239 -167 10 4 17 3 17 -5 0 -7 14 -10 38 -8 l37 3 0 210 0 210
-37 3 -38 3 0 -67z m-49 -124 c28 -16 52 -68 44 -99 -4 -14 -16 -36 -27 -48
-44 -47 -139 -18 -151 44 -6 34 14 87 40 102 23 13 69 14 94 1z"/>
<path d="M287 519 c-97 -51 -114 -186 -32 -258 49 -43 102 -55 156 -37 29 10
45 12 50 5 3 -6 21 -9 40 -7 l34 3 3 158 3 157 -40 0 c-22 0 -41 -5 -43 -12
-4 -10 -10 -10 -32 0 -39 18 -95 14 -139 -9z m144 -78 c37 -37 38 -79 3 -120
-21 -25 -33 -31 -65 -31 -59 0 -96 41 -90 100 8 76 97 105 152 51z"/>
<path d="M940 380 l0 -161 38 3 37 3 0 155 0 155 -37 3 -38 3 0 -161z"/>
<path d="M1500 517 c-173 -91 -61 -349 126 -292 24 7 44 9 44 4 0 -5 18 -9 40
-9 l40 0 0 160 0 160 -39 0 c-22 0 -41 -5 -43 -12 -4 -10 -10 -10 -32 0 -41
18 -88 15 -136 -11z m141 -76 c37 -37 38 -79 3 -120 -54 -65 -154 -28 -154 58
0 32 6 44 31 65 41 35 83 34 120 -3z"/>
<path d="M1854 530 c-48 -19 -77 -86 -58 -135 9 -21 49 -41 104 -50 78 -13
104 -41 61 -65 -32 -16 -60 -12 -87 15 -17 17 -36 25 -59 25 -44 0 -45 -18 -6
-62 26 -29 35 -33 98 -36 106 -6 153 25 153 101 0 22 -8 41 -22 55 -21 18 -45
26 -141 47 -22 4 -28 11 -25 28 2 14 11 23 27 25 35 5 71 -7 71 -23 0 -11 11
-15 40 -15 44 0 50 11 24 49 -31 43 -123 64 -180 41z"/>
</g>
</svg>
